<?xml version="1.0" encoding="UTF-8" standalone="no"?>
<!-- Created with Inkscape (http://www.inkscape.org/) -->

<svg
   xmlns:dc="http://purl.org/dc/elements/1.1/"
   xmlns:cc="http://creativecommons.org/ns#"
   xmlns:rdf="http://www.w3.org/1999/02/22-rdf-syntax-ns#"
   xmlns:svg="http://www.w3.org/2000/svg"
   xmlns="http://www.w3.org/2000/svg"
   xmlns:sodipodi="http://sodipodi.sourceforge.net/DTD/sodipodi-0.dtd"
   xmlns:inkscape="http://www.inkscape.org/namespaces/inkscape"
   width="172"
   height="172"
   viewBox="0 0 45.508331 45.508326"
   version="1.1"
   id="svg985"
   inkscape:version="0.92.4 (5da689c313, 2019-01-14)"
   sodipodi:docname="icon.svg"
   inkscape:export-filename="C:\shareddocs\websites\denocode.com\img\icons\icon.png"
   inkscape:export-xdpi="279.07001"
   inkscape:export-ydpi="279.07001">
  <defs
     id="defs979">
    <inkscape:path-effect
       effect="powerstroke"
       id="path-effect2338"
       is_visible="true"
       offset_points="0,0.13229166"
       sort_points="true"
       interpolator_type="CubicBezierJohan"
       interpolator_beta="0.2"
       start_linecap_type="zerowidth"
       linejoin_type="extrp_arc"
       miter_limit="4"
       end_linecap_type="zerowidth" />
    <inkscape:path-effect
       effect="powerstroke"
       id="path-effect2334"
       is_visible="true"
       offset_points="0,0.13229166"
       sort_points="true"
       interpolator_type="CubicBezierJohan"
       interpolator_beta="0.2"
       start_linecap_type="zerowidth"
       linejoin_type="extrp_arc"
       miter_limit="4"
       end_linecap_type="zerowidth" />
    <inkscape:path-effect
       effect="powerstroke"
       id="path-effect2330"
       is_visible="true"
       offset_points="1,0.13229166"
       sort_points="true"
       interpolator_type="CubicBezierJohan"
       interpolator_beta="0.2"
       start_linecap_type="zerowidth"
       linejoin_type="extrp_arc"
       miter_limit="4"
       end_linecap_type="zerowidth" />
  </defs>
  <sodipodi:namedview
     id="base"
     pagecolor="#ffffff"
     bordercolor="#666666"
     borderopacity="1.0"
     inkscape:pageopacity="0.0"
     inkscape:pageshadow="2"
     inkscape:zoom="3.5303905"
     inkscape:cx="104.97383"
     inkscape:cy="187.72484"
     inkscape:document-units="mm"
     inkscape:current-layer="layer1"
     showgrid="false"
     fit-margin-top="0"
     fit-margin-left="0"
     fit-margin-right="0"
     fit-margin-bottom="0"
     inkscape:window-width="1920"
     inkscape:window-height="1017"
     inkscape:window-x="-8"
     inkscape:window-y="-8"
     inkscape:window-maximized="1"
     units="px" />
  <metadata
     id="metadata982">
    <rdf:RDF>
      <cc:Work
         rdf:about="">
        <dc:format>image/svg+xml</dc:format>
        <dc:type
           rdf:resource="http://purl.org/dc/dcmitype/StillImage" />
        <dc:title></dc:title>
      </cc:Work>
    </rdf:RDF>
  </metadata>
  <g
     inkscape:label="Layer 1"
     inkscape:groupmode="layer"
     id="layer1"
     transform="translate(-13.413039,-70.638041)">
    <circle
       style="opacity:1;vector-effect:none;fill:#ffffff;fill-opacity:1;fill-rule:evenodd;stroke:none;stroke-width:0.03732166;stroke-linecap:round;stroke-linejoin:round;stroke-miterlimit:4;stroke-dasharray:none;stroke-dashoffset:0;stroke-opacity:1;paint-order:markers stroke fill"
       id="path864"
       cx="36.331295"
       cy="93.55323"
       r="22.73579" />
    <ellipse
       style="opacity:1;vector-effect:none;fill:#ffffff;fill-opacity:1;fill-rule:evenodd;stroke:none;stroke-width:0.02708727;stroke-linecap:round;stroke-linejoin:round;stroke-miterlimit:4;stroke-dasharray:none;stroke-dashoffset:0;stroke-opacity:1;paint-order:markers stroke fill"
       id="path862"
       cx="36.331295"
       cy="93.55323"
       rx="21.883791"
       ry="21.584013" />
    <g
       id="g849"
       style="fill:#222222"
       transform="matrix(0.05187308,0,0,0.05187308,15.240998,72.462053)">
      <path
         id="path845"
         d="m 374.575,0.209 c -1.9,0.2 -8,0.9 -13.5,1.4 -78.2,8.2 -155.2,41.3 -218,93.9 -11.6,9.6 -38,36 -47.6,47.6 -52,62.1 -82.4,131.8 -93.6,214.3 -2.5,18.3 -2.5,80.1 0,98.4 11.2,82.5 41.6,152.2 93.6,214.3 9.6,11.6 36,38 47.6,47.6 62.1,52 131.8,82.4 214.3,93.6 18.3,2.5 80.1,2.5 98.4,0 82.5,-11.2 152.2,-41.6 214.3,-93.6 11.6,-9.6 38,-36 47.6,-47.6 52,-62.1 82.4,-131.8 93.6,-214.3 2.5,-18.3 2.5,-80.1 0,-98.4 -11.2,-82.5 -41.6,-152.2 -93.6,-214.3 -9.6,-11.6 -36,-38 -47.6,-47.6 -61.9,-51.8 -132.3,-82.6 -213.7,-93.5 -8.8,-1.2 -21.6,-1.7 -45.3,-1.9 -18.1,-0.2 -34.6,-0.1 -36.5,0.1 z m 5,43.2 c 0,11.7 0.8,37.1 1.9,61.2 0.6,11.8 1.3,28.7 1.6,37.5 1.1,31.2 4.4,113.1 4.9,120.4 l 0.5,7.3 -4.5,-0.5 c -2.5,-0.2 -4.8,-0.8 -5.2,-1.1 -0.3,-0.4 -1,-7.3 -1.4,-15.4 -1.8,-35.6 -7.7,-173.7 -8.3,-193.9 l -0.6,-22.2 2.8,-0.4 c 1.5,-0.2 4,-0.5 5.6,-0.6 l 2.7,-0.1 z m 95.7,-2.4 c 0.1,0.1 0.4,30.3 0.7,67.1 0.4,36.9 0.9,70 1.2,73.6 0.3,3.7 0.2,6.9 -0.3,7.1 -0.4,0.3 -2.9,0.3 -5.4,0 l -4.6,-0.4 -0.7,-29.1 c -0.4,-16.1 -0.9,-33.9 -1.1,-39.7 -0.8,-17.7 -1.5,-77.8 -0.9,-79.3 0.4,-1.1 1.5,-1.2 5.7,-0.5 2.9,0.6 5.3,1.1 5.4,1.2 z m -231.3,33.5 c 0.6,0.9 5.3,56 11.1,128.1 1.9,24.5 3.8,46.9 4.1,49.7 0.5,5.1 0.4,5.3 -2.8,7.3 -1.8,1.1 -3.6,2 -4,2 -0.3,0 -0.9,-2.6 -1.2,-5.8 -1.4,-13 -6.8,-75.8 -10.6,-121.2 -2.2,-26.7 -4.2,-50.6 -4.5,-53.2 -0.5,-4.4 -0.4,-4.8 2.2,-6.2 3.2,-1.7 5,-2 5.7,-0.7 z m 275.3,20.1 c 2.8,1 3.1,1.5 3.7,7.2 1,10 0.7,57.8 -0.4,57.8 -2.9,0 -8.9,-3.4 -9.4,-5.3 -0.3,-1.2 -0.6,-15.4 -0.6,-31.5 0,-32.5 -0.4,-30.6 6.7,-28.2 z m -184.7,4.7 c 0,2.7 0.7,17.6 1.5,33.3 0.8,15.7 1.7,35.6 2.1,44.2 0.7,17.4 0.9,16.8 -5.8,17.2 -3.3,0.1 -3.3,0.1 -3.5,-4.9 -0.2,-2.8 -0.7,-11.5 -1.3,-19.5 -0.5,-8 -1.7,-25.3 -2.5,-38.5 -0.8,-13.2 -1.8,-26.3 -2.1,-29.1 -0.6,-5 -0.5,-5.2 2.2,-6.2 1.6,-0.6 4.4,-1.1 6.2,-1.1 3.2,-0.1 3.2,-0.1 3.2,4.6 z m 277.4,13.7 3.4,1.4 0.7,13.4 c 0.3,7.3 0.5,23.1 0.3,35 l -0.3,21.8 -4.2,-2.1 -4.2,-2 -0.3,-33.2 c -0.2,-18.3 -0.1,-33.8 0.1,-34.5 0.4,-1.5 0.4,-1.5 4.5,0.2 z m -182.6,13.1 c 0.6,0.6 2,49.1 2.1,73.7 l 0.1,14.8 -4.7,-0.7 c -2.7,-0.3 -4.9,-0.6 -5,-0.7 -0.3,-0.2 -3.3,-74.3 -3.3,-81.5 v -7.4 l 5.1,0.6 c 2.9,0.4 5.4,0.9 5.7,1.2 z m 230.3,7.1 c 1.2,1.4 1.4,23.3 1.7,144.1 0.3,138.7 0.3,142.3 -1.5,142.3 -1.1,0 -2.6,-0.6 -3.5,-1.3 -1.5,-1.1 -1.7,-13.2 -2.2,-131.7 -0.4,-71.8 -0.9,-137 -1.2,-144.9 l -0.6,-14.4 2.9,2.1 c 1.7,1.2 3.6,2.9 4.4,3.8 z m -89.7,20.5 c 0.5,0.4 1,6.1 1.1,12.6 0.5,22.1 0.6,157.6 0.1,158 -0.2,0.2 -2,-0.3 -4,-1.1 l -3.6,-1.5 v -170.1 l 2.8,0.6 c 1.5,0.4 3.1,1 3.6,1.5 z m -276,5.6 c 0.3,2.7 0.8,8.8 1.1,13.8 0.3,4.9 1,16.1 1.6,24.8 1.2,17.6 1,18.7 -4.7,18.7 -3,0 -3.4,-0.3 -3.8,-3.3 -1,-5.9 -4.5,-55.1 -4,-55.9 0.5,-0.7 5.7,-2.5 8.1,-2.7 0.6,-0.1 1.4,2 1.7,4.6 z m -165.4,25.5 c 1.1,10.6 3.3,32.8 4.9,49.3 1.7,16.5 3.1,30.5 3.1,31.1 0,1.2 -7.7,5 -8.5,4.2 -0.5,-0.5 -10.5,-89 -10.5,-93 0,-2.4 7.7,-12.5 8.7,-11.4 0.3,0.2 1.3,9.1 2.3,19.8 z m 392.1,10.5 2.9,1.7 0.1,21.6 c 0.1,11.8 0.3,25 0.3,29.3 0.2,9 -0.9,10.5 -6.3,8.6 l -3.1,-1.1 v -8.6 c 0,-4.8 -0.3,-18.7 -0.7,-31 l -0.6,-22.2 h 2.3 c 1.2,0 3.5,0.8 5.1,1.7 z m -348.2,38.8 c 1.8,19.2 4.7,51.6 6.6,72 l 3.4,37 -3.9,3.9 -3.8,3.9 -0.7,-7.9 c -0.4,-4.4 -2.4,-24.8 -4.5,-45.4 -2.1,-20.6 -5.1,-50.5 -6.6,-66.4 l -2.8,-28.8 3.9,-3.6 c 3.5,-3.3 3.9,-3.4 4.6,-1.6 0.4,1 2.1,17.6 3.8,36.9 z m -74.9,12.1 c 2.2,19.7 8,72.1 13,116.4 5,44.3 9.7,87 10.6,95 0.8,8 2.2,20.1 3,27 1.4,11.7 1.4,12.5 -0.2,13.7 -2.4,1.8 -3.4,1.6 -3.4,-0.5 0,-0.9 -0.9,-8.5 -2,-16.7 -1.8,-13.7 -4.8,-36.9 -11.5,-89 -1.4,-10.5 -4.1,-31.4 -6,-46.5 -2,-15.1 -4.9,-37.6 -6.5,-50 -1.6,-12.4 -4.3,-33.6 -6,-47.3 -1.8,-13.6 -2.9,-25.7 -2.6,-27 0.7,-2.7 6.6,-12.1 7.2,-11.5 0.2,0.3 2.2,16.6 4.4,36.4 z m -30.6,43.1 c 1.5,12 4.3,33.9 6.2,48.8 1.9,14.8 4.3,33.3 5.4,41 l 1.9,14 -2.1,1.8 c -1.2,1 -2.4,1.4 -2.8,1 -0.4,-0.4 -1.2,-4.4 -1.8,-8.8 -0.6,-4.4 -4.3,-30.1 -8.3,-57 l -7.1,-49 2.3,-6.8 c 1.2,-3.7 2.5,-6.7 2.8,-6.7 0.4,0 1.9,9.8 3.5,21.7 z m 549,-13.1 c 1.4,1.4 1.6,7.6 1.6,53.5 v 51.9 h -2.8 c -6.1,0 -6,1.5 -6.4,-55.3 l -0.3,-51.7 h 3.2 c 1.7,0 3.9,0.7 4.7,1.6 z m -218.9,17.9 c 22.6,3.4 42.3,9.7 61.8,19.7 12.6,6.5 18.6,11 32.6,24.4 20.8,19.9 33.6,37.3 45.6,61.9 17.5,35.8 24.3,67.5 32.9,152.5 3.9,38.1 9,107.2 10.1,135.5 0.3,8.2 1,21.7 1.6,30 1.1,17.6 2.4,15.2 -13.1,22.7 -21.5,10.4 -42.2,17.6 -69.5,24.3 -33.4,8.2 -55,10.8 -88,10.9 l -24,0.1 0.2,-11.5 c 0,-6.3 0.6,-21 1.2,-32.5 3,-55.7 2.4,-126 -1.5,-165 -2.2,-22.4 -6.5,-49.6 -8.9,-55.6 -0.5,-1.3 1.8,-2.4 11.7,-5.8 18.1,-6.3 33.8,-14.2 36.2,-18.1 4.3,-7.4 -3.4,-18 -13.2,-18 -1.7,0 -6.8,1.8 -11.5,3.9 -22.4,10.3 -67.3,22.4 -93.2,25.1 -17.9,1.9 -45.7,0.8 -65,-2.7 -10.5,-1.9 -29.3,-9 -45,-17.1 -18.1,-9.4 -29.2,-21.9 -32.5,-36.7 -1.8,-8 -1.3,-24 1,-33 2.5,-9.9 9.5,-24.3 15.9,-32.7 28.5,-37.5 87.3,-70 147.6,-81.4 19.2,-3.6 46.4,-4 67,-0.9 z m 308.5,3.1 c 3.6,1.5 4,1.9 4,5.3 0.2,27.3 -0.4,89.7 -0.9,92.3 -0.1,0.9 -5.3,1 -7.5,0.2 -1.4,-0.5 -1.6,-5.9 -1.6,-50 0,-31.6 0.4,-49.4 1,-49.4 0.5,0 2.8,0.7 5,1.6 z m 43.7,54.9 3.6,1.5 -0.7,82.8 c -0.8,105.5 -0.9,108.6 -4.7,117.7 -6.2,14.9 -5.9,17.9 -5.3,-47.5 0.2,-32.7 0.7,-65.8 0.9,-73.5 0.2,-7.7 0.4,-29.4 0.5,-48.3 0,-22.8 0.3,-34.2 1,-34.2 0.6,0 2.7,0.7 4.7,1.5 z m -601.4,24.9 c 0.6,8.1 0.4,8.9 -2.5,15.3 l -3.2,6.8 -1.2,-10 c -1.9,-16 -1.9,-16.7 1.9,-19.1 1.7,-1.2 3.5,-2 3.8,-1.8 0.3,0.2 0.9,4.2 1.2,8.8 z m -61.8,60.3 c 0.9,8.2 7.9,62.6 11.5,89.3 5.4,41.3 5.8,47.2 3.4,44.7 -0.3,-0.3 -2.6,-14.2 -5,-30.9 -15.6,-107.8 -15.5,-107.1 -14.2,-107.9 2.7,-1.8 3.6,-0.8 4.3,4.8 z m 72,45.8 c 0.6,2.5 3.5,29.6 3.5,32.9 0,2.8 -3.6,5.4 -5.2,3.8 -0.5,-0.5 -1.8,-9 -2.8,-18.8 -1.1,-9.9 -2.2,-20.2 -2.5,-22.9 l -0.6,-5 3.5,4 c 2,2.2 3.8,4.9 4.1,6 z m 80.7,37.7 c 1.1,1 1.8,5 2.7,15.8 1.5,19.5 1.7,18 -2.4,18 -4.2,0 -4.1,0.3 -5.5,-17.3 -1.4,-17.9 -1.4,-17.7 1.3,-17.7 1.3,0 3,0.6 3.9,1.2 z m 79.2,1.5 c 0.2,1 0.7,7 1.1,13.3 0.3,6.3 1.2,20.5 2,31.5 2.8,40.4 2.9,45.5 1.2,45.5 -1.9,0 -2.1,-1.5 -4.3,-30 -0.8,-11.8 -2.3,-30.4 -3.3,-41.3 -0.9,-10.9 -1.5,-20 -1.2,-20.2 1.1,-1.2 4,-0.3 4.5,1.2 z m -188,19.2 c 0.6,0.9 4.4,32.9 9.1,76.6 1.4,13.2 2.8,25.9 3.1,28.3 l 0.5,4.3 -2.5,-1.6 c -1.9,-1.3 -2.6,-2.6 -2.6,-4.9 0,-6.3 -4.3,-47.8 -7.6,-73.2 -1.9,-14.4 -3.4,-27.1 -3.4,-28.3 0,-2.1 2.4,-2.9 3.4,-1.2 z m 577.1,41.8 -0.7,41.8 -2.5,3.7 c -5.7,8.4 -5.4,10 -5.1,-36.8 l 0.2,-42.9 3.7,-3.8 c 2,-2 4,-3.7 4.4,-3.7 0.3,0 0.3,18.8 0,41.7 z m -92.5,66.3 c 0.5,58.1 0.4,62.6 -1.2,64.4 -1,1.1 -1.9,1.8 -2.2,1.5 -0.7,-0.8 -1.7,-127.5 -0.9,-128.2 0.4,-0.4 1.4,-0.6 2.3,-0.5 1.3,0.3 1.6,7.4 2,62.8 z m -326.6,-39.8 c 0.7,6.2 3.2,35.9 4.2,49.9 0.6,9.4 0.6,9.7 -1.6,10.4 -1.2,0.4 -2.6,0.3 -3,-0.2 -0.7,-0.7 -2.9,-22.9 -5.6,-57.1 l -0.7,-8.2 h 3.1 c 2.9,0 3.1,0.2 3.6,5.2 z m -78.6,35 c 0.7,0.7 1.2,3.2 1.2,5.7 0,2.6 1.2,16.1 2.5,30.1 3.8,38.3 4.1,43.5 2.4,42.5 -2.6,-1.5 -4.9,-3.8 -4.4,-4.4 0.2,-0.4 -0.2,-5.4 -1,-11.1 -0.7,-5.8 -1.6,-15.2 -2,-21 -0.4,-5.8 -1.3,-16.4 -2.1,-23.5 -1.9,-17.5 -1.8,-19.5 0.4,-19.5 1,0 2.3,0.5 3,1.2 z m 47.3,67.3 c 0.3,2.2 0.9,10.4 1.3,18.2 0.7,15 0.4,16.1 -3.7,13 -1.2,-0.9 -2,-4.7 -3.2,-16.1 -2.1,-20.6 -2.2,-19.8 1.7,-19.4 2.9,0.3 3.3,0.7 3.9,4.3 z"
         inkscape:connector-curvature="0" />
      <path
         id="path847"
         d="m 220.975,342.009 c -10.4,4.5 -11.2,18.6 -1.4,23.6 7.1,3.6 14.3,1.9 18,-4.3 7,-11.4 -4.4,-24.6 -16.6,-19.3 z m 67.8,9.6 c -9.6,5.9 -9.6,20.1 0,26 9.5,5.7 21.8,-1.8 21.8,-13.2 0,-11 -12.6,-18.4 -21.8,-12.8 z"
         inkscape:connector-curvature="0" />
    </g>
  </g>
</svg>
