<?xml version="1.0" encoding="UTF-8" standalone="no"?>
<!-- Created with Inkscape (http://www.inkscape.org/) -->

<svg
   xmlns:dc="http://purl.org/dc/elements/1.1/"
   xmlns:cc="http://creativecommons.org/ns#"
   xmlns:rdf="http://www.w3.org/1999/02/22-rdf-syntax-ns#"
   xmlns:svg="http://www.w3.org/2000/svg"
   xmlns="http://www.w3.org/2000/svg"
   xmlns:sodipodi="http://sodipodi.sourceforge.net/DTD/sodipodi-0.dtd"
   xmlns:inkscape="http://www.inkscape.org/namespaces/inkscape"
   width="304.0441mm"
   height="135.46667mm"
   viewBox="0 0 304.0441 135.46667"
   version="1.1"
   id="svg8"
   inkscape:version="0.92.4 (5da689c313, 2019-01-14)"
   sodipodi:docname="rockets.svg">
  <defs
     id="defs2" />
  <sodipodi:namedview
     id="base"
     pagecolor="#ffffff"
     bordercolor="#666666"
     borderopacity="1.0"
     inkscape:pageopacity="0.0"
     inkscape:pageshadow="2"
     inkscape:zoom="0.35"
     inkscape:cx="-12.571212"
     inkscape:cy="390.28574"
     inkscape:document-units="mm"
     inkscape:current-layer="layer1"
     showgrid="false"
     fit-margin-top="0"
     fit-margin-left="0"
     fit-margin-right="0"
     fit-margin-bottom="0"
     inkscape:window-width="3840"
     inkscape:window-height="2035"
     inkscape:window-x="3827"
     inkscape:window-y="809"
     inkscape:window-maximized="1" />
  <metadata
     id="metadata5">
    <rdf:RDF>
      <cc:Work
         rdf:about="">
        <dc:format>image/svg+xml</dc:format>
        <dc:type
           rdf:resource="http://purl.org/dc/dcmitype/StillImage" />
        <dc:title></dc:title>
      </cc:Work>
    </rdf:RDF>
  </metadata>
  <g
     inkscape:label="Layer 1"
     inkscape:groupmode="layer"
     id="layer1"
     transform="translate(97.971486,-116.62977)">
    <path
       id="path815"
       d="m 204.25234,121.68166 c -0.31471,-1.46348 -1.76164,-2.91042 -3.22977,-3.22461 -8.51884,-1.82728 -15.18872,-1.82728 -21.82963,-1.82728 -27.31354,0 -43.69287,14.60583 -55.92104,33.86667 H 95.698437 c -4.32531,0.004 -9.40768,3.14193 -11.34709,7.00732 l -13.0798,26.14415 a 7.5141667,7.5141667 0 0 0 -0.66559,2.83186 6.3522939,6.3522939 0 0 0 6.35154,6.35 h 27.466493 l -5.946403,5.94486 c -3.00704,3.00602 -3.43854,8.53488 0,11.9724 L 111.946,224.21597 c 2.95175,2.96002 8.50799,3.48092 11.97961,0 l 5.94639,-5.94486 v 27.47533 a 6.3522939,6.3522939 0 0 0 6.35154,6.35 7.5563254,7.5563254 0 0 0 2.83289,-0.66559 l 26.12188,-13.06794 c 3.87056,-1.93063 7.01351,-7.01146 7.01351,-11.33988 v -27.63242 c 19.2081,-12.25351 33.87591,-28.68249 33.87591,-55.85189 0.0248,-6.66832 0.0248,-13.33665 -1.81539,-21.85706 z m -32.03571,39.39811 a 10.583333,10.583333 0 1 1 10.58589,-10.58333 10.589477,10.589477 0 0 1 -10.58589,10.58333 z"
       inkscape:connector-curvature="0"
       style="stroke-width:0.26458332" />
    <path
       id="path815-8"
       d="m 62.661404,162.43628 c -0.22339,-1.00613 -1.250443,-2.00092 -2.292559,-2.21691 -6.04685,-1.25626 -10.781268,-1.25626 -15.495124,-1.25626 -19.387716,0 -31.014104,10.04151 -39.6939135,23.28333 H -14.392406 c -3.070194,0.004 -6.677767,2.16008 -8.054401,4.81753 l -9.284313,17.97412 a 5.333711,5.1659892 0 0 0 -0.472448,1.9469 4.5089897,4.3672018 0 0 0 4.508454,4.36562 h 19.4962865 l -4.2208805,4.08709 c -2.13446,2.06664 -2.440747,5.86774 0,8.23102 l 9.5601585,9.25991 c 2.09521202,2.035 6.039146,2.39312 8.503374,0 l 4.22087,-4.08711 v 18.8893 a 4.5089897,4.3672018 0 0 0 4.5084565,4.36562 5.3636362,5.1949735 0 0 0 2.010843,-0.4576 l 18.541853,-8.9842 c 2.747403,-1.32732 4.978335,-4.82038 4.978335,-7.79617 v -18.99728 c 13.634313,-8.42428 24.045819,-19.71921 24.045819,-38.39818 0.01838,-4.58447 0.01838,-9.16895 -1.288597,-15.02673 z m -22.739613,27.08621 a 7.5122689,7.2760411 0 1 1 7.514092,-7.27605 7.5166299,7.2802649 0 0 1 -7.514092,7.27605 z"
       inkscape:connector-curvature="0"
       style="stroke-width:0.18483028" />
    <path
       id="path815-8-9"
       d="m -46.362507,201.73537 c -0.12153,-0.56513 -0.68027,-1.12389 -1.24721,-1.24521 -3.289642,-0.70563 -5.865286,-0.70563 -8.429744,-0.70563 -10.547417,0 -16.872471,5.6402 -21.59451,13.07798 h -10.647786 c -1.670266,0.002 -3.632878,1.21329 -4.381802,2.70595 l -5.050907,10.09585 a 2.9016759,2.9016759 0 0 0 -0.25702,1.09355 2.4530063,2.4530063 0 0 0 2.45271,2.45212 h 10.606484 l -2.296268,2.29567 c -1.161201,1.16081 -1.327828,3.29584 0,4.62327 l 5.200972,5.20118 c 1.139849,1.14304 3.285451,1.34419 4.626054,0 l 2.296262,-2.29568 v 10.6099 a 2.4530063,2.4530063 0 0 0 2.452716,2.45212 2.917956,2.917956 0 0 0 1.09395,-0.25703 l 10.087246,-5.04632 c 1.494658,-0.74554 2.708341,-2.70755 2.708341,-4.37902 v -10.67055 c 7.417417,-4.73182 13.081542,-11.07605 13.081542,-21.56781 0.01,-2.57504 0.01,-5.15009 -0.70103,-8.44034 z m -12.370931,15.21401 a 4.0868674,4.0868674 0 1 1 4.08786,-4.08687 4.0892399,4.0892399 0 0 1 -4.08786,4.08687 z"
       inkscape:connector-curvature="0"
       style="stroke-width:0.10217169" />
  </g>
</svg>
